<svg width="14" height="6" viewBox="0 0 14 6" fill="none" xmlns="http://www.w3.org/2000/svg">
<path d="M13.3376 3.65038H0.653559C0.479577 3.65038 0.31272 3.58126 0.189697 3.45824C0.0666727 3.33521 -0.00244141 3.16835 -0.00244141 2.99437C-0.00244141 2.82039 0.0666727 2.65354 0.189697 2.53052C0.31272 2.40749 0.479577 2.33838 0.653559 2.33838H13.3376C13.5115 2.33838 13.6784 2.40749 13.8014 2.53052C13.9244 2.65354 13.9936 2.82039 13.9936 2.99437C13.9936 3.16835 13.9244 3.33521 13.8014 3.45824C13.6784 3.58126 13.5115 3.65038 13.3376 3.65038Z" fill="#0A0B0C"/>
<path d="M11.2386 5.75535C11.1089 5.75513 10.9821 5.71647 10.8742 5.64427C10.7664 5.57206 10.6824 5.46953 10.6327 5.34962C10.5831 5.22971 10.5701 5.09779 10.5953 4.9705C10.6206 4.8432 10.683 4.72623 10.7746 4.63435L12.4126 2.99635L10.7746 1.35835C10.6549 1.23444 10.5887 1.06848 10.5902 0.896204C10.5917 0.723926 10.6608 0.559119 10.7826 0.437296C10.9044 0.315472 11.0692 0.246384 11.2415 0.244898C11.4137 0.243411 11.5797 0.309643 11.7036 0.429346L13.8036 2.52935C13.9268 2.65256 13.996 2.81965 13.996 2.99386C13.996 3.16807 13.9268 3.33515 13.8036 3.45835L11.7036 5.55836C11.6431 5.62047 11.5708 5.66987 11.491 5.7037C11.4111 5.73752 11.3253 5.75508 11.2386 5.75535Z" fill="#0A0B0C"/>
</svg>
