<svg width="14" height="6" viewBox="0 0 14 6" fill="none" xmlns="http://www.w3.org/2000/svg">
<path d="M0.657465 3.65135H13.3415C13.5154 3.65135 13.6823 3.58224 13.8053 3.45921C13.9284 3.33619 13.9975 3.16933 13.9975 2.99535C13.9975 2.82136 13.9284 2.65452 13.8053 2.53149C13.6823 2.40847 13.5154 2.33936 13.3415 2.33936H0.657465C0.483483 2.33936 0.316627 2.40847 0.193603 2.53149C0.0705789 2.65452 0.00146484 2.82136 0.00146484 2.99535C0.00146484 3.16933 0.0705789 3.33619 0.193603 3.45921C0.316627 3.58224 0.483483 3.65135 0.657465 3.65135Z" fill="#0A0B0C"/>
<path d="M2.75687 5.75535C2.88664 5.75513 3.01346 5.71647 3.12129 5.64427C3.22913 5.57206 3.31316 5.46953 3.36279 5.34962C3.41243 5.22971 3.42543 5.09779 3.40018 4.9705C3.37492 4.8432 3.31253 4.72623 3.22087 4.63435L1.58287 2.99635L3.22087 1.35835C3.34057 1.23444 3.40682 1.06848 3.40533 0.896204C3.40385 0.723926 3.33474 0.559119 3.21292 0.437296C3.0911 0.315472 2.92631 0.246384 2.75403 0.244898C2.58175 0.243411 2.41578 0.309643 2.29187 0.429346L0.191879 2.52935C0.0687102 2.65256 -0.000488281 2.81965 -0.000488281 2.99386C-0.000488281 3.16807 0.0687102 3.33515 0.191879 3.45835L2.29187 5.55836C2.35238 5.62047 2.42469 5.66987 2.50453 5.7037C2.58438 5.73752 2.67015 5.75508 2.75687 5.75535Z" fill="#0A0B0C"/>
</svg>
